<svg width="17" height="18" viewBox="0 0 17 18" fill="none" xmlns="http://www.w3.org/2000/svg">
<path d="M16.844 7.36182H8.67301V10.8446H13.3408C13.1395 11.9703 12.5289 12.9225 11.6085 13.5604C10.8305 14.0998 9.8377 14.4188 8.67075 14.4188C6.41147 14.4188 4.50047 12.8357 3.81748 10.7085C3.6456 10.1691 3.5461 9.59218 3.5461 8.99883C3.5461 8.40547 3.6456 7.82853 3.81748 7.28912C4.50273 5.1643 6.41373 3.58124 8.67301 3.58124C9.94626 3.58124 11.0883 4.03622 11.9884 4.92743L14.4761 2.34528C12.9722 0.891205 11.0114 0 8.67301 0C5.28296 0 2.34974 2.01694 0.922709 4.95792C0.334708 6.17277 0 7.5471 0 9.00117C0 10.4552 0.334708 11.8272 0.922709 13.0421C2.34974 15.9831 5.28296 18 8.67301 18C11.016 18 12.979 17.1932 14.4128 15.8189C16.0524 14.2522 17 11.9445 17 9.20287C17 8.56495 16.9457 7.95283 16.844 7.36182Z" fill="white"/>
</svg>
