<svg width="22" height="18" viewBox="0 0 22 18" fill="none" xmlns="http://www.w3.org/2000/svg">
<path d="M6.92 17.94C8.60914 17.9506 10.2836 17.6258 11.8462 16.9843C13.4088 16.3428 14.8285 15.3974 16.0229 14.2029C17.2174 13.0085 18.1627 11.5888 18.8043 10.0262C19.4458 8.46358 19.7706 6.78915 19.76 5.10001V4.51C20.6356 3.86849 21.3935 3.08018 22 2.18001C21.1755 2.5406 20.3031 2.77975 19.41 2.89001C20.3569 2.32579 21.0674 1.43767 21.41 0.390005C20.5275 0.919446 19.5598 1.29164 18.55 1.49C17.8699 0.765371 16.97 0.28506 15.9895 0.123391C15.0089 -0.038279 14.0024 0.127704 13.1257 0.595659C12.249 1.06361 11.551 1.80745 11.1396 2.71208C10.7282 3.61671 10.6264 4.6317 10.85 5.60001C9.05603 5.51195 7.30071 5.04703 5.69836 4.23551C4.096 3.424 2.68254 2.28409 1.55 0.890005C0.978923 1.88118 0.805827 3.05233 1.06576 4.16633C1.32569 5.28033 1.99923 6.25393 2.95 6.89001C2.24861 6.86295 1.56345 6.67111 0.95 6.33V6.38C0.943767 7.41584 1.29272 8.42252 1.9387 9.23227C2.58469 10.042 3.48867 10.6059 4.5 10.83C3.84764 11.0055 3.16429 11.0328 2.5 10.91C2.79278 11.7934 3.35168 12.5646 4.10005 13.1178C4.84841 13.671 5.74959 13.9792 6.68 14C5.08921 15.2805 3.11209 15.9854 1.07 16C0.711953 15.9896 0.354747 15.9596 0 15.91C2.06696 17.2269 4.4692 17.9212 6.92 17.91" fill="white"/>
</svg>
